<?xml version="1.0" standalone="no"?><!DOCTYPE svg PUBLIC "-//W3C//DTD SVG 1.1//EN" "http://www.w3.org/Graphics/SVG/1.1/DTD/svg11.dtd"><svg t="1543478392792" class="icon" style="" viewBox="0 0 1280 1024" version="1.1" xmlns="http://www.w3.org/2000/svg" p-id="15658" xmlns:xlink="http://www.w3.org/1999/xlink" width="80" height="64"><defs><style type="text/css"></style></defs><path d="M1280 896v64a64 64 0 0 1-64 64H64a64 64 0 0 1-64-64v-64a64 64 0 0 0 64 64h1152a64 64 0 0 0 64-64z" fill="#1967D2" p-id="15659"></path><path d="M1216 128h-549.76a64 64 0 0 1-44.8-18.56L530.56 18.56a64 64 0 0 0-44.8-18.56H64a64 64 0 0 0-64 64v832a64 64 0 0 0 64 64h1152a64 64 0 0 0 64-64V192a64 64 0 0 0-64-64zM64 128V64h412.8l64 64z" fill="#4C9AFF" p-id="15660"></path><path d="M773.76 526.72V325.12L672.64 224 571.52 325.12v67.2H369.92v471.68h606.08V526.72z m-269.44 269.44H437.12v-67.2h67.2z m0-135.04H437.12V594.56h67.2z m0-135.04H437.12V459.52h67.2zM704 796.16h-64v-67.2h64z m0-135.04h-64V594.56h64z m0-135.04h-64V459.52h64z m0-135.04h-64V325.12h64z m202.24 404.48h-64.64v-66.56h67.2z m0-135.04h-64.64V594.56h67.2z" fill="#1967D2" p-id="15661"></path></svg>