<?xml version="1.0" standalone="no"?><!DOCTYPE svg PUBLIC "-//W3C//DTD SVG 1.1//EN" "http://www.w3.org/Graphics/SVG/1.1/DTD/svg11.dtd"><svg t="1543564966767" class="icon" style="" viewBox="0 0 1024 1024" version="1.1" xmlns="http://www.w3.org/2000/svg" p-id="33645" xmlns:xlink="http://www.w3.org/1999/xlink" width="64" height="64"><defs><style type="text/css"></style></defs><path d="M705.340952 293.790476h142.872381v589.531429c0 30.47619-23.161905 53.638095-53.638095 53.638095H223.085714c-30.47619 0-53.638095-23.161905-53.638095-53.638095v-714.361905c0-30.47619 23.161905-53.638095 53.638095-53.638095h446.659048v142.872381h35.84v35.59619z m-53.638095-17.798095V133.12H223.085714c-19.748571 0-35.84 16.091429-35.84 35.84v714.361905c0 19.748571 16.091429 35.84 35.84 35.84h571.489524c19.748571 0 35.84-16.091429 35.84-35.84V311.588571H687.542857v-35.84h-35.84z m0 0" fill="#9FA0A6" p-id="33646"></path><path d="M678.521905 311.588571h-26.819048V115.078095h17.798095v17.798095h17.798096v17.798096h17.798095v17.798095h17.798095v17.798095h17.798095v17.798095h17.798096V221.866667h17.798095v17.798095h17.798095v17.798095h17.798095v17.798095h17.798096v17.798096h17.798095v17.798095H650.971429v-26.819048c0.731429 15.11619 13.165714 27.550476 27.550476 27.550476z m0 0M240.88381 829.68381h535.893333V865.52381H240.88381v-35.84z m0-89.234286h535.893333v35.84H240.88381v-35.84z m0-89.478095h535.893333v35.84H240.88381V650.971429z m0 0" fill="#9FA0A6" p-id="33647"></path><path d="M151.649524 204.55619h285.744762c19.748571 0 35.84 16.091429 35.84 35.84v285.744762c0 19.748571-16.091429 35.84-35.84 35.84H151.649524c-19.748571 0-35.84-16.091429-35.84-35.84V240.152381c0-19.504762 16.091429-35.59619 35.84-35.596191z m0 0" fill="#515151" p-id="33648"></path><path d="M299.885714 423.740952h-33.889524v-11.946666c-0.24381-8.289524 1.462857-16.579048 5.12-23.893334 4.144762-7.558095 9.99619-14.140952 16.822858-19.504762 6.826667-5.12 12.921905-11.459048 18.041904-18.285714 2.925714-4.632381 4.632381-9.752381 4.632381-15.36 0.24381-5.851429-2.194286-11.459048-6.582857-15.11619-5.607619-4.144762-12.190476-6.095238-19.017143-5.607619-16.579048 0.24381-32.670476 6.582857-44.860952 18.041904v-39.740952c15.11619-8.045714 31.939048-12.190476 49.005714-11.946667 16.335238-0.975238 32.426667 3.900952 45.592381 13.409524 10.727619 8.777143 16.579048 21.942857 16.091429 35.84 0 9.508571-2.194286 18.773333-6.582857 27.306667-5.851429 9.99619-13.653333 18.773333-22.918096 25.6-6.582857 4.87619-12.434286 10.727619-17.310476 17.310476-2.681905 4.632381-3.900952 9.752381-3.900952 14.872381v9.020952z m-16.822857 18.773334c6.095238-0.24381 12.190476 2.194286 16.822857 6.339047 4.388571 3.900952 7.070476 9.508571 6.826667 15.36 0 5.851429-2.438095 11.215238-6.826667 15.116191-4.632381 4.144762-10.48381 6.582857-16.822857 6.339047-6.095238 0.24381-12.190476-2.194286-16.822857-6.339047-4.388571-3.657143-6.826667-9.264762-6.826667-14.872381 0-5.851429 2.438095-11.459048 6.826667-15.116191 4.632381-4.632381 10.48381-7.070476 16.822857-6.826666z m0 0" fill="#FFFFFF" p-id="33649"></path></svg>